<?xml version="1.0" encoding="utf-8"?>
<!-- Generator: Adobe Illustrator 25.0.1, SVG Export Plug-In . SVG Version: 6.00 Build 0)  -->
<svg version="1.1" id="Layer_1" xmlns="http://www.w3.org/2000/svg" xmlns:xlink="http://www.w3.org/1999/xlink" x="0px" y="0px"
	 viewBox="0 0 566 68" enable-background="new 0 0 566 68" xml:space="preserve">
<g>
	<g>
		<path d="M5.81,62.12V6.49H53.5v7.95h7.95v23.84H53.5v7.95H21.71v15.9H5.81z M21.71,38.28h23.84V14.43H21.71V38.28z"/>
		<path d="M53.5,6.49v7.95h7.95v23.84H53.5v7.95H21.71v15.9H5.81V6.49H53.5 M21.71,38.28h23.84V14.43H21.71V38.28 M59.2,0.79h-5.7
			H5.81h-5.7v5.7v55.63v5.7h5.7h15.9h5.7v-5.7v-10.2H53.5h5.7v-5.7v-2.25h2.25h5.7v-5.7V14.43v-5.7h-5.7H59.2V6.49V0.79L59.2,0.79z
			 M27.41,20.13h12.44v12.44H27.41V20.13L27.41,20.13z"/>
	</g>
	<g>
		<path d="M67.18,62.12v-7.95h15.9V30.33h-7.95v-7.95h23.84v31.79h15.9v7.95H67.18z M83.07,14.43V6.49h15.9v7.95H83.07z"/>
		<path d="M98.97,6.49v7.95h-15.9V6.49H98.97 M98.97,22.38v31.79h15.9v7.95H67.18v-7.95h15.9V30.33h-7.95v-7.95H98.97 M104.67,0.79
			h-5.7h-15.9h-5.7v5.7v7.95v2.25h-2.25h-5.7v5.7v7.95v5.7h5.7h2.25v12.44H67.18h-5.7v5.7v7.95v5.7h5.7h47.69h5.7v-5.7v-7.95v-5.7
			h-5.7h-10.19V22.38v-5.7v-2.25V6.49V0.79L104.67,0.79z"/>
	</g>
	<g>
		<path d="M121.38,62.12v-7.95h7.95v-7.95h7.95v-7.95h-7.95v-7.95h-7.95v-7.95h15.9v7.95h7.95v7.95h7.95v-7.95h7.95v-7.95h15.9v7.95
			h-7.95v7.95h-7.95v7.95h7.95v7.95h7.95v7.95h-15.9v-7.95h-7.95v-7.95h-7.95v7.95h-7.95v7.95H121.38z"/>
		<path d="M177.02,22.38v7.95h-7.95v7.95h-7.95v7.95h7.95v7.95h7.95v7.95h-15.9v-7.95h-7.95v-7.95h-7.95v7.95h-7.95v7.95h-15.9
			v-7.95h7.95v-7.95h7.95v-7.95h-7.95v-7.95h-7.95v-7.95h15.9v7.95h7.95v7.95h7.95v-7.95h7.95v-7.95H177.02 M182.72,16.68h-5.7
			h-15.9h-5.7v5.7v2.25h-2.25h-2.25h-5.7h-2.25v-2.25v-5.7h-5.7h-15.9h-5.7v5.7v7.95v5.7h5.7h2.25v2.25v5.7v2.25v2.25h-2.25h-5.7
			v5.7v7.95v5.7h5.7h15.9h5.7v-5.7v-2.25h2.25h5.7h2.25h2.25v2.25v5.7h5.7h15.9h5.7v-5.7v-7.95v-5.7h-5.7h-2.25v-2.25v-2.25v-5.7
			v-2.25h2.25h5.7v-5.7v-7.95V16.68L182.72,16.68z"/>
	</g>
	<g>
		<path d="M191.49,62.12v-7.95h-7.95V30.33h7.95v-7.95h39.74v7.95h7.95v15.89h-39.74v7.95h31.79v7.95H191.49z M199.44,38.28h23.84
			v-7.95h-23.84V38.28z"/>
		<path d="M231.23,22.38v7.95h7.95v15.89h-39.74v7.95h31.79v7.95h-39.74v-7.95h-7.95V30.33h7.95v-7.95H231.23 M199.44,38.28h23.84
			v-7.95h-23.84V38.28 M236.93,16.68h-5.7h-39.74h-5.7v5.7v2.25h-2.25h-5.7v5.7v23.84v5.7h5.7h2.25v2.25v5.7h5.7h39.74h5.7v-5.7
			v-7.95v-2.25h2.25h5.7v-5.7V30.33v-5.7h-5.7h-2.25v-2.25V16.68L236.93,16.68z"/>
	</g>
	<g>
		<path d="M245.49,62.12v-7.95h15.9V14.43h-7.95V6.49h23.84v47.69h15.9v7.95H245.49z"/>
		<path d="M277.29,6.49v47.69h15.9v7.95h-47.69v-7.95h15.9V14.43h-7.95V6.49H277.29 M282.99,0.79h-5.7h-23.84h-5.7v5.7v7.95v5.7h5.7
			h2.25v28.34h-10.19h-5.7v5.7v7.95v5.7h5.7h47.69h5.7v-5.7v-7.95v-5.7h-5.7h-10.19V6.49V0.79L282.99,0.79z"/>
	</g>
	<g>
		<path d="M355.3,62.12V14.43h-15.9V6.49h47.69v7.95h-15.9v47.69H355.3z"/>
		<path d="M387.09,6.49v7.95h-15.9v47.69H355.3V14.43h-15.9V6.49H387.09 M392.79,0.79h-5.7h-47.69h-5.7v5.7v7.95v5.7h5.7h10.2v41.99
			v5.7h5.7h15.89h5.7v-5.7V20.13h10.2h5.7v-5.7V6.49V0.79L392.79,0.79z"/>
	</g>
	<g>
		<path d="M392.79,62.12v-7.95h-7.95v-7.95h7.95v-7.95h31.79v-7.95h-31.79v-7.95h39.74v7.95h7.95v31.79H392.79z M400.74,54.17h23.84
			v-7.95h-23.84V54.17z"/>
		<path d="M432.53,22.38v7.95h7.95v31.79h-47.69v-7.95h-7.95v-7.95h7.95v-7.95h31.79v-7.95h-31.79v-7.95H432.53 M400.74,54.17h23.84
			v-7.95h-23.84V54.17 M438.23,16.68h-5.7h-39.74h-5.7v5.7v7.95v5.7v2.25v2.25h-2.25h-5.7v5.7v7.95v5.7h5.7h2.25v2.25v5.7h5.7h47.69
			h5.7v-5.7V30.33v-5.7h-5.7h-2.25v-2.25V16.68L438.23,16.68z"/>
	</g>
	<g>
		<path d="M450.57,62.12v-7.95h15.9V14.43h-7.95V6.49h23.84v47.69h15.9v7.95H450.57z"/>
		<path d="M482.36,6.49v47.69h15.9v7.95h-47.69v-7.95h15.9V14.43h-7.95V6.49H482.36 M488.06,0.79h-5.7h-23.84h-5.7v5.7v7.95v5.7h5.7
			h2.25v28.34h-10.2h-5.7v5.7v7.95v5.7h5.7h47.69h5.7v-5.7v-7.95v-5.7h-5.7h-10.2V6.49V0.79L488.06,0.79z"/>
	</g>
	<g>
		<path d="M512.73,62.12v-7.95h-7.95V30.33h7.95v-7.95h39.74v7.95h7.95v15.89h-39.74v7.95h31.79v7.95H512.73z M520.68,38.28h23.84
			v-7.95h-23.84V38.28z"/>
		<path d="M552.47,22.38v7.95h7.95v15.89h-39.74v7.95h31.79v7.95h-39.74v-7.95h-7.95V30.33h7.95v-7.95H552.47 M520.68,38.28h23.84
			v-7.95h-23.84V38.28 M558.17,16.68h-5.7h-39.74h-5.7v5.7v2.25h-2.25h-5.7v5.7v23.84v5.7h5.7h2.25v2.25v5.7h5.7h39.74h5.7v-5.7
			v-7.95v-2.25h2.25h5.7v-5.7V30.33v-5.7h-5.7h-2.25v-2.25V16.68L558.17,16.68z"/>
	</g>
</g>
<g>
	<linearGradient id="SVGID_1_" gradientUnits="userSpaceOnUse" x1="33.63" y1="74.8062" x2="33.63" y2="-0.0184">
		<stop  offset="0" style="stop-color:#F7931E"/>
		<stop  offset="0.9693" style="stop-color:#FCEE21"/>
	</linearGradient>
	<path fill="url(#SVGID_1_)" d="M5.81,62.12V6.49H53.5v7.95h7.95v23.84H53.5v7.95H21.71v15.9H5.81z M21.71,38.28h23.84V14.43H21.71
		V38.28z"/>
	<linearGradient id="SVGID_2_" gradientUnits="userSpaceOnUse" x1="91.0182" y1="74.8062" x2="91.0182" y2="-0.0184">
		<stop  offset="0" style="stop-color:#F7931E"/>
		<stop  offset="0.9693" style="stop-color:#FCEE21"/>
	</linearGradient>
	<path fill="url(#SVGID_2_)" d="M67.18,62.12v-7.95h15.9V30.33h-7.95v-7.95h23.84v31.79h15.9v7.95H67.18z M83.07,14.43V6.49h15.9
		v7.95H83.07z"/>
	<linearGradient id="SVGID_3_" gradientUnits="userSpaceOnUse" x1="149.2011" y1="74.8062" x2="149.2011" y2="-0.0184">
		<stop  offset="0" style="stop-color:#F7931E"/>
		<stop  offset="0.9693" style="stop-color:#FCEE21"/>
	</linearGradient>
	<path fill="url(#SVGID_3_)" d="M121.38,62.12v-7.95h7.95v-7.95h7.95v-7.95h-7.95v-7.95h-7.95v-7.95h15.9v7.95h7.95v7.95h7.95v-7.95
		h7.95v-7.95h15.9v7.95h-7.95v7.95h-7.95v7.95h7.95v7.95h7.95v7.95h-15.9v-7.95h-7.95v-7.95h-7.95v7.95h-7.95v7.95H121.38z"/>
	<linearGradient id="SVGID_4_" gradientUnits="userSpaceOnUse" x1="211.358" y1="74.8062" x2="211.358" y2="-0.0184">
		<stop  offset="0" style="stop-color:#F7931E"/>
		<stop  offset="0.9693" style="stop-color:#FCEE21"/>
	</linearGradient>
	<path fill="url(#SVGID_4_)" d="M191.49,62.12v-7.95h-7.95V30.33h7.95v-7.95h39.74v7.95h7.95v15.89h-39.74v7.95h31.79v7.95H191.49z
		 M199.44,38.28h23.84v-7.95h-23.84V38.28z"/>
	<linearGradient id="SVGID_5_" gradientUnits="userSpaceOnUse" x1="269.3373" y1="74.8062" x2="269.3373" y2="-0.0184">
		<stop  offset="0" style="stop-color:#F7931E"/>
		<stop  offset="0.9693" style="stop-color:#FCEE21"/>
	</linearGradient>
	<path fill="url(#SVGID_5_)" d="M245.49,62.12v-7.95h15.9V14.43h-7.95V6.49h23.84v47.69h15.9v7.95H245.49z"/>
	<linearGradient id="SVGID_6_" gradientUnits="userSpaceOnUse" x1="363.2484" y1="74.8062" x2="363.2484" y2="-0.0184">
		<stop  offset="0" style="stop-color:#F7931E"/>
		<stop  offset="0.9693" style="stop-color:#FCEE21"/>
	</linearGradient>
	<path fill="url(#SVGID_6_)" d="M355.3,62.12V14.43h-15.9V6.49h47.69v7.95h-15.9v47.69H355.3z"/>
	<linearGradient id="SVGID_7_" gradientUnits="userSpaceOnUse" x1="412.6571" y1="74.8062" x2="412.6571" y2="-0.0184">
		<stop  offset="0" style="stop-color:#F7931E"/>
		<stop  offset="0.9693" style="stop-color:#FCEE21"/>
	</linearGradient>
	<path fill="url(#SVGID_7_)" d="M392.79,62.12v-7.95h-7.95v-7.95h7.95v-7.95h31.79v-7.95h-31.79v-7.95h39.74v7.95h7.95v31.79H392.79
		z M400.74,54.17h23.84v-7.95h-23.84V54.17z"/>
	<linearGradient id="SVGID_8_" gradientUnits="userSpaceOnUse" x1="474.4134" y1="74.8062" x2="474.4134" y2="-0.0184">
		<stop  offset="0" style="stop-color:#F7931E"/>
		<stop  offset="0.9693" style="stop-color:#FCEE21"/>
	</linearGradient>
	<path fill="url(#SVGID_8_)" d="M450.57,62.12v-7.95h15.9V14.43h-7.95V6.49h23.84v47.69h15.9v7.95H450.57z"/>
	<linearGradient id="SVGID_9_" gradientUnits="userSpaceOnUse" x1="532.5964" y1="74.8062" x2="532.5964" y2="-0.0184">
		<stop  offset="0" style="stop-color:#F7931E"/>
		<stop  offset="0.9693" style="stop-color:#FCEE21"/>
	</linearGradient>
	<path fill="url(#SVGID_9_)" d="M512.73,62.12v-7.95h-7.95V30.33h7.95v-7.95h39.74v7.95h7.95v15.89h-39.74v7.95h31.79v7.95H512.73z
		 M520.68,38.28h23.84v-7.95h-23.84V38.28z"/>
</g>
</svg>
