<svg xmlns="http://www.w3.org/2000/svg" viewBox="0 0 566 68"><path d="M5.81 62.12V6.49H53.5v7.95h7.95v23.84H53.5v7.95H21.71v15.9H5.81zm15.9-23.84h23.84V14.43H21.71v23.85z"/><path d="M53.5 6.49v7.95h7.95v23.84H53.5v7.95H21.71v15.9H5.81V6.49H53.5M21.71 38.28h23.84V14.43H21.71v23.85M59.2.79H.11v67.03h27.3V51.92H59.2v-7.95h7.95V8.73H59.2V.79zM27.41 20.13h12.44v12.44H27.41V20.13zM67.18 62.12v-7.95h15.9V30.33h-7.95v-7.95h23.84v31.79h15.9v7.95H67.18zm15.89-47.69V6.49h15.9v7.95h-15.9z"/><path d="M98.97 6.49v7.95h-15.9V6.49h15.9m0 15.89v31.79h15.9v7.95H67.18v-7.95h15.9V30.33h-7.95v-7.95h23.84m5.7-21.59h-27.3v15.9h-7.95v19.35h7.95v12.44H61.48v19.35h59.09V48.48h-15.89V.79h-.01zM121.38 62.12v-7.95h7.95v-7.95h7.95v-7.95h-7.95v-7.95h-7.95v-7.95h15.9v7.95h7.95v7.95h7.95v-7.95h7.95v-7.95h15.9v7.95h-7.95v7.95h-7.95v7.95h7.95v7.95h7.95v7.95h-15.9v-7.95h-7.95v-7.95h-7.95v7.95h-7.95v7.95h-15.9z"/><path d="M177.02 22.38v7.95h-7.95v7.95h-7.95v7.95h7.95v7.95h7.95v7.95h-15.9v-7.95h-7.95v-7.95h-7.95v7.95h-7.95v7.95h-15.9v-7.95h7.95v-7.95h7.95v-7.95h-7.95v-7.95h-7.95v-7.95h15.9v7.95h7.95v7.95h7.95v-7.95h7.95v-7.95h15.9m5.7-5.7h-27.3v7.95h-12.45v-7.95h-27.3v19.35h7.95v12.45h-7.95v19.35h27.3v-7.95h12.45v7.95h27.3V48.48h-7.95V36.03h7.95V16.68zM191.49 62.12v-7.95h-7.95V30.33h7.95v-7.95h39.74v7.95h7.95v15.89h-39.74v7.95h31.79v7.95h-39.74zm7.95-23.84h23.84v-7.95h-23.84v7.95z"/><path d="M231.23 22.38v7.95h7.95v15.89h-39.74v7.95h31.79v7.95h-39.74v-7.95h-7.95V30.33h7.95v-7.95h39.74m-31.79 15.9h23.84v-7.95h-23.84v7.95m37.49-21.6H185.79v7.95h-7.95v35.24h7.95v7.95H236.93v-15.9h7.95V24.63h-7.95v-7.95zM245.49 62.12v-7.95h15.9V14.43h-7.95V6.49h23.84v47.69h15.9v7.95h-47.69z"/><path d="M277.29 6.49v47.69h15.9v7.95H245.5v-7.95h15.9V14.43h-7.95V6.49h23.84m5.7-5.7h-35.24v19.35h7.95v28.34h-15.89v19.35h59.09V48.48h-15.89V.79h-.02z"/><g><path d="M355.3 62.12V14.43h-15.9V6.49h47.69v7.95h-15.9v47.69H355.3z"/><path d="M387.09 6.49v7.95h-15.9v47.69H355.3v-47.7h-15.9V6.49h47.69m5.7-5.7H333.7v19.35H349.6V67.83h27.29v-47.7H392.79V.79z"/></g><g><path d="M392.79 62.12v-7.95h-7.95v-7.95h7.95v-7.95h31.79v-7.95h-31.79v-7.95h39.74v7.95h7.95v31.79h-47.69zm7.95-7.95h23.84v-7.95h-23.84v7.95z"/><path d="M432.53 22.38v7.95h7.95v31.79h-47.69v-7.95h-7.95v-7.95h7.95v-7.95h31.79v-7.95h-31.79v-7.95h39.74m-31.79 31.8h23.84v-7.95h-23.84v7.95m37.49-37.49H387.09v23.85h-7.95v19.35h7.95v7.95h59.09v-43.2h-7.95v-7.95z"/></g><g><path d="M450.57 62.12v-7.95h15.9V14.43h-7.95V6.49h23.84v47.69h15.9v7.95h-47.69z"/><path d="M482.36 6.49v47.69h15.9v7.95h-47.69v-7.95h15.9V14.43h-7.95V6.49h23.84m5.7-5.7h-35.24v19.35h7.95v28.34H444.87v19.35h59.09V48.48H488.06V.79z"/></g><g><path d="M512.73 62.12v-7.95h-7.95V30.33h7.95v-7.95h39.74v7.95h7.95v15.89h-39.74v7.95h31.79v7.95h-39.74zm7.95-23.84h23.84v-7.95h-23.84v7.95z"/><path d="M552.47 22.38v7.95h7.95v15.89h-39.74v7.95h31.79v7.95h-39.74v-7.95h-7.95V30.33h7.95v-7.95h39.74m-31.79 15.9h23.84v-7.95h-23.84v7.95m37.49-21.6H507.03v7.95h-7.95v35.24h7.95v7.95H558.17v-15.9h7.95V24.63h-7.95v-7.95z"/></g><g><linearGradient id="a" gradientUnits="userSpaceOnUse" x1="33.63" y1="74.806" x2="33.63" y2="-.018"><stop offset="0" stop-color="#f7931e"/><stop offset=".969" stop-color="#fcee21"/></linearGradient><path fill="url(#a)" d="M5.81 62.12V6.49H53.5v7.95h7.95v23.84H53.5v7.95H21.71v15.9H5.81zm15.9-23.84h23.84V14.43H21.71v23.85z"/><linearGradient id="b" gradientUnits="userSpaceOnUse" x1="91.018" y1="74.806" x2="91.018" y2="-.018"><stop offset="0" stop-color="#f7931e"/><stop offset=".969" stop-color="#fcee21"/></linearGradient><path fill="url(#b)" d="M67.18 62.12v-7.95h15.9V30.33h-7.95v-7.95h23.84v31.79h15.9v7.95H67.18zm15.89-47.69V6.49h15.9v7.95h-15.9z"/><linearGradient id="c" gradientUnits="userSpaceOnUse" x1="149.201" y1="74.806" x2="149.201" y2="-.018"><stop offset="0" stop-color="#f7931e"/><stop offset=".969" stop-color="#fcee21"/></linearGradient><path fill="url(#c)" d="M121.38 62.12v-7.95h7.95v-7.95h7.95v-7.95h-7.95v-7.95h-7.95v-7.95h15.9v7.95h7.95v7.95h7.95v-7.95h7.95v-7.95h15.9v7.95h-7.95v7.95h-7.95v7.95h7.95v7.95h7.95v7.95h-15.9v-7.95h-7.95v-7.95h-7.95v7.95h-7.95v7.95h-15.9z"/><linearGradient id="d" gradientUnits="userSpaceOnUse" x1="211.358" y1="74.806" x2="211.358" y2="-.018"><stop offset="0" stop-color="#f7931e"/><stop offset=".969" stop-color="#fcee21"/></linearGradient><path fill="url(#d)" d="M191.49 62.12v-7.95h-7.95V30.33h7.95v-7.95h39.74v7.95h7.95v15.89h-39.74v7.95h31.79v7.95h-39.74zm7.95-23.84h23.84v-7.95h-23.84v7.95z"/><linearGradient id="e" gradientUnits="userSpaceOnUse" x1="269.337" y1="74.806" x2="269.337" y2="-.018"><stop offset="0" stop-color="#f7931e"/><stop offset=".969" stop-color="#fcee21"/></linearGradient><path fill="url(#e)" d="M245.49 62.12v-7.95h15.9V14.43h-7.95V6.49h23.84v47.69h15.9v7.95h-47.69z"/><linearGradient id="f" gradientUnits="userSpaceOnUse" x1="363.248" y1="74.806" x2="363.248" y2="-.018"><stop offset="0" stop-color="#f7931e"/><stop offset=".969" stop-color="#fcee21"/></linearGradient><path fill="url(#f)" d="M355.3 62.12V14.43h-15.9V6.49h47.69v7.95h-15.9v47.69H355.3z"/><linearGradient id="g" gradientUnits="userSpaceOnUse" x1="412.657" y1="74.806" x2="412.657" y2="-.018"><stop offset="0" stop-color="#f7931e"/><stop offset=".969" stop-color="#fcee21"/></linearGradient><path fill="url(#g)" d="M392.79 62.12v-7.95h-7.95v-7.95h7.95v-7.95h31.79v-7.95h-31.79v-7.95h39.74v7.95h7.95v31.79h-47.69zm7.95-7.95h23.84v-7.95h-23.84v7.95z"/><linearGradient id="h" gradientUnits="userSpaceOnUse" x1="474.413" y1="74.806" x2="474.413" y2="-.018"><stop offset="0" stop-color="#f7931e"/><stop offset=".969" stop-color="#fcee21"/></linearGradient><path fill="url(#h)" d="M450.57 62.12v-7.95h15.9V14.43h-7.95V6.49h23.84v47.69h15.9v7.95h-47.69z"/><linearGradient id="i" gradientUnits="userSpaceOnUse" x1="532.596" y1="74.806" x2="532.596" y2="-.018"><stop offset="0" stop-color="#f7931e"/><stop offset=".969" stop-color="#fcee21"/></linearGradient><path fill="url(#i)" d="M512.73 62.12v-7.95h-7.95V30.33h7.95v-7.95h39.74v7.95h7.95v15.89h-39.74v7.95h31.79v7.95h-39.74zm7.95-23.84h23.84v-7.95h-23.84v7.95z"/></g></svg>