<?xml version="1.0" encoding="utf-8"?>
<!-- Generator: Adobe Illustrator 25.0.1, SVG Export Plug-In . SVG Version: 6.00 Build 0)  -->
<svg version="1.1" id="Layer_1" xmlns="http://www.w3.org/2000/svg" xmlns:xlink="http://www.w3.org/1999/xlink" x="0px" y="0px"
	 viewBox="0 0 160 40" style="enable-background:new 0 0 160 40;" xml:space="preserve">
<style type="text/css">
	.st0{fill:#244C12;}
</style>
<g>
	<g>
		<rect x="4" y="10" width="32" height="2.7"/>
	</g>
	<g>
		<rect x="4" y="18.7" width="32" height="2.7"/>
	</g>
	<g>
		<rect x="4" y="27.3" width="32" height="2.7"/>
	</g>
</g>
<g>
	<g>
		<g>
			<rect x="98.5" y="2" transform="matrix(0.7071 -0.7071 0.7071 0.7071 15.1466 76.5681)" width="3" height="36"/>
		</g>
	</g>
	<g>
		<g>
			<rect x="82" y="18.5" transform="matrix(0.7071 -0.7071 0.7071 0.7071 15.1466 76.5681)" width="36" height="3"/>
		</g>
	</g>
</g>
<g>
	<g>
		<g>
			<rect x="138.5" y="2" transform="matrix(0.7071 -0.7071 0.7071 0.7071 26.862 104.8523)" class="st0" width="3" height="36"/>
		</g>
	</g>
	<g>
		<g>
			<rect x="122" y="18.5" transform="matrix(0.7071 -0.7071 0.7071 0.7071 26.862 104.8523)" class="st0" width="36" height="3"/>
		</g>
	</g>
</g>
<g>
	<g>
		<rect x="44" y="10" class="st0" width="32" height="2.7"/>
	</g>
	<g>
		<rect x="44" y="18.7" class="st0" width="32" height="2.7"/>
	</g>
	<g>
		<rect x="44" y="27.3" class="st0" width="32" height="2.7"/>
	</g>
</g>
</svg>
