<svg version="1.1" id="Layer_1" xmlns="http://www.w3.org/2000/svg" x="0" y="0" viewBox="0 0 160 40" xml:space="preserve"><style>.st0{fill:#244c12}</style><path d="M4 10h32v2.7H4zM4 18.7h32v2.7H4zM4 27.3h32V30H4z"/><path transform="rotate(-45.001 100 20.002)" d="M98.5 2h3v36h-3z"/><path transform="rotate(-45.001 100 20.002)" d="M82 18.5h36v3H82z"/><g><path transform="rotate(-45.001 140 20.003)" class="st0" d="M138.5 2h3v36h-3z"/><path transform="rotate(-45.001 140 20.003)" class="st0" d="M122 18.5h36v3h-36z"/></g><g><path class="st0" d="M44 10h32v2.7H44zM44 18.7h32v2.7H44zM44 27.3h32V30H44z"/></g></svg>